<svg xmlns="http://www.w3.org/2000/svg" width="35.792" height="41.559" viewBox="0 0 35.792 41.559">
  <g id="_8c42630610" transform="translate(0.012 -31.544)">
    <path id="Path_1" data-name="Path 1" d="M35.44,60.25c.07.36.13.74.19,1.13s.1.74.15,1.1c-.04.41-.09.8-.15,1.19s-.1.77-.15,1.17c-.1.79-.22,1.58-.35,2.38-.13.78-.28,1.55-.46,2.31-.47,1.78-1.27,2.89-2.4,3.31-1.13.51-2.54.28-4.25-.71a2.153,2.153,0,0,0-1.04-.21,4,4,0,0,0-1.25.21,22.439,22.439,0,0,1-10.9.5,15.073,15.073,0,0,1-4.75-1.67,16.944,16.944,0,0,1-3.56-2.63,21.211,21.211,0,0,1-2.5-2.9A22.672,22.672,0,0,1,.64,58.14,17.121,17.121,0,0,1,.2,50.87a22.176,22.176,0,0,1,3.63-8.73,24.234,24.234,0,0,1,7.06-6.71,24.314,24.314,0,0,1,8.38-3.46,17.239,17.239,0,0,1,7.98.08,19.026,19.026,0,0,1,3.02,1.21,6.044,6.044,0,0,1,2.54,2.33,4.233,4.233,0,0,1,.54,2.67,1.268,1.268,0,0,1-.54,1.04,1.531,1.531,0,0,1-1.42.06q-8.88-3.27-17.13,3.21a13.751,13.751,0,0,0-5.33,9.75c-.52,4.22,1.13,7.66,4.92,10.31a13.073,13.073,0,0,0,12.42,1.48,3.875,3.875,0,0,0,1.29-.77,2.01,2.01,0,0,0,.52-1.79v-.17a4.974,4.974,0,0,1,.02-.52c.01-.19.02-.38.02-.56.04-.55.06-1.08.06-1.58a2.051,2.051,0,0,0-.44-1.31,1.623,1.623,0,0,0-1.08-.67,13.519,13.519,0,0,0-1.48-.21c-.22,0-.44,0-.65-.02s-.39-.05-.56-.08l-.44-.06c-.25-.07-.51-.13-.77-.19a6.867,6.867,0,0,1-.75-.19,2.288,2.288,0,0,1-1.52-2.13,1.8,1.8,0,0,1,.98-1.75A12.188,12.188,0,0,1,31.72,50.8a3.027,3.027,0,0,1,2.02,1.58,7.927,7.927,0,0,1,.75,2.08c.18.95.35,1.91.52,2.9.17.97.3,1.93.42,2.88Z" fill="#422b1c"/>
  </g>
</svg>
